<?xml version="1.0" encoding="UTF-8"?>
<svg id="Layer_2" data-name="Layer 2" xmlns="http://www.w3.org/2000/svg" viewBox="0 0 512 512">
  <defs>
    <style>
      .cls-1 {
        fill: #ad8b44;
      }
    </style>
  </defs>
  <g>
    <path class="cls-1" d="M73.51,24.9c43.27.38,77.96.33,99.98.23,92.66-.41,199.03-7.71,259.99,76.74,1.29,1.79,2.55,3.6,3.76,5.45,20.64,31.22,30.16,68.94,31.23,106.35,1.12,39.27-7.03,79.3-27,113.13-35.2,59.62-102.87,90.21-170.69,89.28h-118.54V107.6c6.52-3.97,13.04-7.95,19.57-11.92v297.78h3.38V92.62h-3.85v-33.66c7.55,4.04,15.09,8.07,22.64,12.11v8.11h-2.92v314.13h3.38V82.07c6.42,3.41,12.84,6.83,19.26,10.24v300.54h3.06v-194.29c6.52,3.82,13.04,7.64,19.56,11.47v182.83c7.31,0,14.61,0,21.92,0,10.12,0,21.33.69,30.93-2.79,8.79-3.19,16.94-8.01,24.19-13.89,14.76-11.97,25.89-28.23,33.06-45.73,11.65-28.41,13.97-59.68,15.26-90.36,1.11-26.49,1.55-53.18-2.59-79.37s-13.09-52.05-29.21-73.11c-18.75-24.51-47.73-41.59-79.12-40.91H119.37c-3.68-3.5-11.16-9.46-21.55-10.32-1.78-.15-3.47-.13-5.04,0h-19.28c0-3.82.01-7.64.02-11.46Z"/>
    <path class="cls-1" d="M147.8,165.92c.31,83.4.61,166.79.92,250.19h-75.24c0-2.76,0-7.5,0-10.26,22.4.44,46.04.78,52.19-24.72,1.17-4.5,1.73-9.3,2.03-14.15,1.01-62.63.07-125.66.38-188.21,6.57-4.28,13.15-8.56,19.72-12.84Z"/>
  </g>
  <g>
    <path class="cls-1" d="M22.13,444.82h10.78c3.59,0,6.65,1.26,9.16,3.77,2.63,2.64,3.95,6.59,3.95,11.86s-1.38,8.93-4.13,11.68c-2.28,2.28-5.27,3.41-8.98,3.41h-10.78v-30.73ZM26.26,448.24v23.9h6.47c2.27,0,4.13-.72,5.57-2.16,2.27-2.27,3.41-5.45,3.41-9.52,0-4.31-1.08-7.55-3.23-9.7-1.68-1.68-3.59-2.52-5.75-2.52h-6.47Z"/>
    <path class="cls-1" d="M85.28,444.82h19.77v3.41h-15.63v9.52h14.55v3.41h-14.55v10.96h16.53v3.41h-20.66v-30.73Z"/>
    <path class="cls-1" d="M148.6,446.98c1.68-1.68,4.25-2.52,7.73-2.52,3.71,0,6.53.96,8.45,2.88,1.68,1.68,2.52,3.66,2.52,5.93h-4.13c0-1.44-.48-2.63-1.44-3.59-1.08-1.08-2.76-1.62-5.03-1.62-2.52,0-4.25.48-5.21,1.44-.84.84-1.26,1.8-1.26,2.88s.24,1.86.72,2.34c.6.6,1.68,1.2,3.23,1.8,2.75,1.2,5.87,2.58,9.34,4.13.96.36,1.86.96,2.7,1.8,1.32,1.32,1.98,2.88,1.98,4.67,0,2.4-.84,4.43-2.52,6.11-1.8,1.8-4.73,2.7-8.8,2.7s-7.01-1.08-9.16-3.23c-1.56-1.56-2.34-3.83-2.34-6.83h4.13c0,2.16.48,3.71,1.44,4.67,1.32,1.32,3.35,1.98,6.11,1.98,2.52,0,4.37-.6,5.57-1.8.96-.96,1.44-1.92,1.44-2.88,0-1.08-.36-1.98-1.08-2.7-.6-.6-1.56-1.2-2.88-1.8-1.2-.6-2.76-1.32-4.67-2.16-2.16-.96-3.89-1.74-5.21-2.34-.96-.36-1.8-.9-2.52-1.62-1.08-1.08-1.62-2.52-1.62-4.31,0-2.27.84-4.25,2.52-5.93Z"/>
    <path class="cls-1" d="M208.59,444.82h4.13v12.94h14.73v-12.94h4.13v30.73h-4.13v-14.38h-14.73v14.38h-4.13v-30.73Z"/>
    <path class="cls-1" d="M271.03,444.64h15.09c2.4,0,4.37.78,5.93,2.34,1.56,1.56,2.34,3.71,2.34,6.47s-.78,4.91-2.34,6.47c-.84.84-2.04,1.38-3.59,1.62l7.01,13.84h-4.49l-6.47-13.3h-9.34v13.3h-4.13v-30.73ZM275.16,448.06v10.6h10.6c1.2,0,2.22-.42,3.05-1.26.84-.84,1.26-2.16,1.26-3.95,0-1.68-.48-2.99-1.44-3.95-.96-.96-2.1-1.44-3.41-1.44h-10.06Z"/>
    <path class="cls-1" d="M339.68,448.24c2.52-2.52,5.57-3.77,9.16-3.77s6.65,1.26,9.16,3.77c2.88,2.88,4.31,6.83,4.31,11.86s-1.44,8.98-4.31,11.86c-2.52,2.52-5.57,3.77-9.16,3.77s-6.65-1.26-9.16-3.77c-2.88-2.88-4.31-6.83-4.31-11.86s1.44-8.98,4.31-11.86ZM342.73,450.57c-2.04,2.04-3.05,5.21-3.05,9.52s1.02,7.49,3.05,9.52c1.8,1.8,3.83,2.7,6.11,2.7s4.31-.9,6.11-2.7c2.04-2.04,3.05-5.21,3.05-9.52s-1.02-7.49-3.05-9.52c-1.8-1.8-3.83-2.7-6.11-2.7s-4.31.9-6.11,2.7Z"/>
    <path class="cls-1" d="M407.7,447.88c2.27-2.27,5.21-3.41,8.8-3.41s6.41,1.02,8.45,3.05c2.16,2.16,3.29,4.91,3.41,8.27h-4.31c-.24-2.52-1.02-4.43-2.34-5.75-1.44-1.44-3.18-2.16-5.21-2.16-2.16,0-4.07.84-5.75,2.52-2.16,2.16-3.23,5.45-3.23,9.88s1.08,7.73,3.23,9.88c1.56,1.56,3.47,2.34,5.75,2.34,2.4,0,4.25-.66,5.57-1.98,1.68-1.68,2.52-4.07,2.52-7.19h4.31c-.12,4.07-1.32,7.25-3.59,9.52-2.04,2.04-4.97,3.05-8.8,3.05-3.59,0-6.53-1.14-8.8-3.41-3-2.99-4.49-7.07-4.49-12.22s1.5-9.4,4.49-12.4Z"/>
    <path class="cls-1" d="M468.57,444.82h4.13v14.02l14.02-14.02h5.21l-12.22,12.22,12.4,18.51h-4.85l-10.42-15.63-4.13,4.13v11.5h-4.13v-30.73Z"/>
  </g>
</svg>