<?xml version="1.0" encoding="UTF-8"?>
<svg id="Layer_2" data-name="Layer 2" xmlns="http://www.w3.org/2000/svg" viewBox="0 0 512 512">
  <defs>
    <style>
      .cls-1 {
        fill: #ad8b44;
      }
    </style>
  </defs>
  <path class="cls-1" d="M58.48,60.44c43.27.38,77.96.33,99.98.23,92.66-.41,199.03-7.71,259.99,76.74,1.29,1.79,2.55,3.6,3.76,5.45,20.64,31.22,30.16,68.94,31.23,106.35,1.12,39.27-7.03,79.3-27,113.13-35.2,59.62-102.87,90.21-170.69,89.28h-118.54V143.15c6.52-3.97,13.04-7.95,19.57-11.92v297.78h3.38V128.16h-3.85v-33.66c7.55,4.04,15.09,8.07,22.64,12.11v8.11h-2.92v314.13h3.38V117.62c6.42,3.41,12.84,6.83,19.26,10.24v300.54h3.06v-194.29c6.52,3.82,13.04,7.64,19.56,11.47v182.83c7.31,0,14.61,0,21.92,0,10.12,0,21.33.69,30.93-2.79,8.79-3.19,16.94-8.01,24.19-13.89,14.76-11.97,25.89-28.23,33.06-45.73,11.65-28.41,13.97-59.68,15.26-90.36,1.11-26.49,1.55-53.18-2.59-79.37s-13.09-52.05-29.21-73.11c-18.75-24.51-47.73-41.59-79.12-40.91H104.34c-3.68-3.5-11.16-9.46-21.55-10.32-1.78-.15-3.47-.13-5.04,0h-19.28c0-3.82.01-7.64.02-11.46Z"/>
  <path class="cls-1" d="M132.78,201.46c.31,83.4.61,166.79.92,250.19H58.46c0-2.76,0-7.5,0-10.26,22.4.44,46.04.78,52.19-24.72,1.17-4.5,1.73-9.3,2.03-14.15,1.01-62.63.07-125.66.38-188.21,6.57-4.28,13.15-8.56,19.72-12.84Z"/>
</svg>